# xmcd
#
# Track frame offsets:
#	150
#	11902
#	27359
#	44313
#	60503
#	75023
#	90646
#	110943
#	123945
#	147476
#	168171
#	188685
#	207665
#	225940
#	240547
#	261847
#	279468
#	296116
#	312938
#	332249
#
# Disc length: 4650 seconds
#
# Revision: 450542656
# Processed by: cddbd v1.5.2PL0 Copyright (c) Steve Scherf et al.
# Submitted via: EZCDAudioConverter 8.0.6.1
#
DISCID=1b122814
DTITLE=Martina Mcbride - Hits And More
DYEAR=2012
DGENRE=Country
TTITLE0=My Baby Loves Me
TTITLE1=Independence Day
TTITLE2=Wild Angels
TTITLE3=A Broken Wing
TTITLE4=Valentine
TTITLE5=Happy Girl
TTITLE6=Whatever You Say
TTITLE7=I Love You
TTITLE8=Love's The Only House
TTITLE9=Blessed
TTITLE10=Where Would You Be
TTITLE11=Concrete Angel
TTITLE12=This One's For The Girls
TTITLE13=In My Daughter's Eyes
TTITLE14=Anyway
TTITLE15=Ride
TTITLE16=Wrong Baby Wrong Baby Wrong
TTITLE17=Surrender
TTITLE18=Straight To The Bone
TTITLE19=Being Myself
EXTD=
EXTT0=
EXTT1=
EXTT2=
EXTT3=
EXTT4=
EXTT5=
EXTT6=
EXTT7=
EXTT8=
EXTT9=
EXTT10=
EXTT11=
EXTT12=
EXTT13=
EXTT14=
EXTT15=
EXTT16=
EXTT17=
EXTT18=
EXTT19=
PLAYORDER=
